<mxfile host="app.diagrams.net" modified="2023-08-14T03:59:04.915Z" agent="Mozilla/5.0 (Windows NT 10.0; Win64; x64) AppleWebKit/537.36 (KHTML, like Gecko) Chrome/115.0.0.0 Safari/537.36" etag="sStIG1pbbdbc5ZHjx8IX" version="21.6.6" type="device">
  <diagram name="Page-1" id="mSCFi0lDtsztmZLMwQ90">
    <mxGraphModel dx="1366" dy="752" grid="1" gridSize="10" guides="1" tooltips="1" connect="1" arrows="1" fold="1" page="1" pageScale="1" pageWidth="850" pageHeight="1100" math="0" shadow="0">
      <root>
        <mxCell id="0" />
        <mxCell id="1" parent="0" />
        <mxCell id="OBE0YwQN6jxVk4rTIBQ9-4" style="edgeStyle=orthogonalEdgeStyle;rounded=0;orthogonalLoop=1;jettySize=auto;html=1;entryX=0.5;entryY=0;entryDx=0;entryDy=0;" edge="1" parent="1" source="OBE0YwQN6jxVk4rTIBQ9-1" target="OBE0YwQN6jxVk4rTIBQ9-3">
          <mxGeometry relative="1" as="geometry" />
        </mxCell>
        <mxCell id="OBE0YwQN6jxVk4rTIBQ9-1" value="" style="rounded=1;whiteSpace=wrap;html=1;" vertex="1" parent="1">
          <mxGeometry x="180" y="40" width="120" height="60" as="geometry" />
        </mxCell>
        <mxCell id="OBE0YwQN6jxVk4rTIBQ9-2" value="Program Start" style="text;html=1;strokeColor=none;fillColor=none;align=center;verticalAlign=middle;whiteSpace=wrap;rounded=0;" vertex="1" parent="1">
          <mxGeometry x="210" y="55" width="60" height="30" as="geometry" />
        </mxCell>
        <mxCell id="OBE0YwQN6jxVk4rTIBQ9-12" style="edgeStyle=orthogonalEdgeStyle;rounded=0;orthogonalLoop=1;jettySize=auto;html=1;entryX=0.5;entryY=0;entryDx=0;entryDy=0;" edge="1" parent="1" source="OBE0YwQN6jxVk4rTIBQ9-3" target="OBE0YwQN6jxVk4rTIBQ9-6">
          <mxGeometry relative="1" as="geometry" />
        </mxCell>
        <mxCell id="OBE0YwQN6jxVk4rTIBQ9-3" value="" style="rounded=1;whiteSpace=wrap;html=1;" vertex="1" parent="1">
          <mxGeometry x="180" y="140" width="120" height="60" as="geometry" />
        </mxCell>
        <mxCell id="OBE0YwQN6jxVk4rTIBQ9-5" value="Declare Variables" style="text;html=1;strokeColor=none;fillColor=none;align=center;verticalAlign=middle;whiteSpace=wrap;rounded=0;" vertex="1" parent="1">
          <mxGeometry x="210" y="155" width="60" height="30" as="geometry" />
        </mxCell>
        <mxCell id="OBE0YwQN6jxVk4rTIBQ9-10" style="edgeStyle=orthogonalEdgeStyle;rounded=0;orthogonalLoop=1;jettySize=auto;html=1;entryX=0.5;entryY=0;entryDx=0;entryDy=0;" edge="1" parent="1" source="OBE0YwQN6jxVk4rTIBQ9-6" target="OBE0YwQN6jxVk4rTIBQ9-8">
          <mxGeometry relative="1" as="geometry" />
        </mxCell>
        <mxCell id="OBE0YwQN6jxVk4rTIBQ9-13" value="False" style="edgeLabel;html=1;align=center;verticalAlign=middle;resizable=0;points=[];" vertex="1" connectable="0" parent="OBE0YwQN6jxVk4rTIBQ9-10">
          <mxGeometry x="-0.0375" y="2" relative="1" as="geometry">
            <mxPoint as="offset" />
          </mxGeometry>
        </mxCell>
        <mxCell id="OBE0YwQN6jxVk4rTIBQ9-11" style="edgeStyle=orthogonalEdgeStyle;rounded=0;orthogonalLoop=1;jettySize=auto;html=1;entryX=0.5;entryY=0;entryDx=0;entryDy=0;" edge="1" parent="1" source="OBE0YwQN6jxVk4rTIBQ9-6" target="OBE0YwQN6jxVk4rTIBQ9-9">
          <mxGeometry relative="1" as="geometry" />
        </mxCell>
        <mxCell id="OBE0YwQN6jxVk4rTIBQ9-14" value="True" style="edgeLabel;html=1;align=center;verticalAlign=middle;resizable=0;points=[];" vertex="1" connectable="0" parent="OBE0YwQN6jxVk4rTIBQ9-11">
          <mxGeometry x="-0.15" y="-2" relative="1" as="geometry">
            <mxPoint as="offset" />
          </mxGeometry>
        </mxCell>
        <mxCell id="OBE0YwQN6jxVk4rTIBQ9-6" value="" style="rhombus;whiteSpace=wrap;html=1;" vertex="1" parent="1">
          <mxGeometry x="200" y="240" width="80" height="80" as="geometry" />
        </mxCell>
        <mxCell id="OBE0YwQN6jxVk4rTIBQ9-7" value="Try opening input.in" style="text;html=1;strokeColor=none;fillColor=none;align=center;verticalAlign=middle;whiteSpace=wrap;rounded=0;" vertex="1" parent="1">
          <mxGeometry x="210" y="265" width="60" height="30" as="geometry" />
        </mxCell>
        <mxCell id="OBE0YwQN6jxVk4rTIBQ9-8" value="" style="rounded=1;whiteSpace=wrap;html=1;" vertex="1" parent="1">
          <mxGeometry x="60" y="360" width="120" height="60" as="geometry" />
        </mxCell>
        <mxCell id="OBE0YwQN6jxVk4rTIBQ9-19" style="edgeStyle=orthogonalEdgeStyle;rounded=0;orthogonalLoop=1;jettySize=auto;html=1;entryX=0.5;entryY=0;entryDx=0;entryDy=0;" edge="1" parent="1" source="OBE0YwQN6jxVk4rTIBQ9-9" target="OBE0YwQN6jxVk4rTIBQ9-18">
          <mxGeometry relative="1" as="geometry" />
        </mxCell>
        <mxCell id="OBE0YwQN6jxVk4rTIBQ9-9" value="" style="rounded=1;whiteSpace=wrap;html=1;" vertex="1" parent="1">
          <mxGeometry x="300" y="360" width="120" height="100" as="geometry" />
        </mxCell>
        <mxCell id="OBE0YwQN6jxVk4rTIBQ9-15" value="End Program with Error" style="text;html=1;strokeColor=none;fillColor=none;align=center;verticalAlign=middle;whiteSpace=wrap;rounded=0;" vertex="1" parent="1">
          <mxGeometry x="90" y="375" width="60" height="30" as="geometry" />
        </mxCell>
        <mxCell id="OBE0YwQN6jxVk4rTIBQ9-17" value="Read sentence, split at whitespace, find out how many words, declare encryption array" style="text;html=1;strokeColor=none;fillColor=none;align=center;verticalAlign=middle;whiteSpace=wrap;rounded=0;" vertex="1" parent="1">
          <mxGeometry x="310" y="370" width="100" height="80" as="geometry" />
        </mxCell>
        <mxCell id="OBE0YwQN6jxVk4rTIBQ9-23" style="edgeStyle=orthogonalEdgeStyle;rounded=0;orthogonalLoop=1;jettySize=auto;html=1;entryX=0.5;entryY=0;entryDx=0;entryDy=0;" edge="1" parent="1" source="OBE0YwQN6jxVk4rTIBQ9-18" target="OBE0YwQN6jxVk4rTIBQ9-21">
          <mxGeometry relative="1" as="geometry" />
        </mxCell>
        <mxCell id="OBE0YwQN6jxVk4rTIBQ9-18" value="Print Debug Info" style="rounded=1;whiteSpace=wrap;html=1;" vertex="1" parent="1">
          <mxGeometry x="300" y="500" width="120" height="60" as="geometry" />
        </mxCell>
        <mxCell id="OBE0YwQN6jxVk4rTIBQ9-25" style="edgeStyle=orthogonalEdgeStyle;rounded=0;orthogonalLoop=1;jettySize=auto;html=1;entryX=0;entryY=0.5;entryDx=0;entryDy=0;" edge="1" parent="1" source="OBE0YwQN6jxVk4rTIBQ9-21" target="OBE0YwQN6jxVk4rTIBQ9-24">
          <mxGeometry relative="1" as="geometry" />
        </mxCell>
        <mxCell id="OBE0YwQN6jxVk4rTIBQ9-58" style="edgeStyle=orthogonalEdgeStyle;rounded=0;orthogonalLoop=1;jettySize=auto;html=1;entryX=0.5;entryY=0;entryDx=0;entryDy=0;" edge="1" parent="1" source="OBE0YwQN6jxVk4rTIBQ9-21" target="OBE0YwQN6jxVk4rTIBQ9-57">
          <mxGeometry relative="1" as="geometry" />
        </mxCell>
        <mxCell id="OBE0YwQN6jxVk4rTIBQ9-59" value="After Last Word" style="edgeLabel;html=1;align=center;verticalAlign=middle;resizable=0;points=[];" vertex="1" connectable="0" parent="OBE0YwQN6jxVk4rTIBQ9-58">
          <mxGeometry x="-0.3307" y="2" relative="1" as="geometry">
            <mxPoint as="offset" />
          </mxGeometry>
        </mxCell>
        <mxCell id="OBE0YwQN6jxVk4rTIBQ9-21" value="For Loop" style="rhombus;whiteSpace=wrap;html=1;" vertex="1" parent="1">
          <mxGeometry x="320" y="600" width="80" height="80" as="geometry" />
        </mxCell>
        <mxCell id="OBE0YwQN6jxVk4rTIBQ9-28" style="edgeStyle=orthogonalEdgeStyle;rounded=0;orthogonalLoop=1;jettySize=auto;html=1;entryX=0;entryY=0.5;entryDx=0;entryDy=0;" edge="1" parent="1" source="OBE0YwQN6jxVk4rTIBQ9-24" target="OBE0YwQN6jxVk4rTIBQ9-27">
          <mxGeometry relative="1" as="geometry">
            <Array as="points">
              <mxPoint x="520" y="790" />
            </Array>
          </mxGeometry>
        </mxCell>
        <mxCell id="OBE0YwQN6jxVk4rTIBQ9-32" value="False" style="edgeLabel;html=1;align=center;verticalAlign=middle;resizable=0;points=[];" vertex="1" connectable="0" parent="OBE0YwQN6jxVk4rTIBQ9-28">
          <mxGeometry x="0.2421" y="-1" relative="1" as="geometry">
            <mxPoint as="offset" />
          </mxGeometry>
        </mxCell>
        <mxCell id="OBE0YwQN6jxVk4rTIBQ9-30" style="edgeStyle=orthogonalEdgeStyle;rounded=0;orthogonalLoop=1;jettySize=auto;html=1;entryX=0;entryY=0.5;entryDx=0;entryDy=0;" edge="1" parent="1" source="OBE0YwQN6jxVk4rTIBQ9-24">
          <mxGeometry relative="1" as="geometry">
            <mxPoint x="640" y="490" as="targetPoint" />
            <Array as="points">
              <mxPoint x="520" y="490" />
            </Array>
          </mxGeometry>
        </mxCell>
        <mxCell id="OBE0YwQN6jxVk4rTIBQ9-35" value="True" style="edgeLabel;html=1;align=center;verticalAlign=middle;resizable=0;points=[];" vertex="1" connectable="0" parent="OBE0YwQN6jxVk4rTIBQ9-30">
          <mxGeometry x="0.1053" y="1" relative="1" as="geometry">
            <mxPoint as="offset" />
          </mxGeometry>
        </mxCell>
        <mxCell id="OBE0YwQN6jxVk4rTIBQ9-24" value="If numChars &amp;gt; 1" style="rhombus;whiteSpace=wrap;html=1;" vertex="1" parent="1">
          <mxGeometry x="440" y="560" width="160" height="160" as="geometry" />
        </mxCell>
        <mxCell id="OBE0YwQN6jxVk4rTIBQ9-33" style="edgeStyle=orthogonalEdgeStyle;rounded=0;orthogonalLoop=1;jettySize=auto;html=1;entryX=0.5;entryY=1;entryDx=0;entryDy=0;" edge="1" parent="1" source="OBE0YwQN6jxVk4rTIBQ9-27" target="OBE0YwQN6jxVk4rTIBQ9-21">
          <mxGeometry relative="1" as="geometry">
            <Array as="points">
              <mxPoint x="700" y="840" />
              <mxPoint x="360" y="840" />
            </Array>
          </mxGeometry>
        </mxCell>
        <mxCell id="OBE0YwQN6jxVk4rTIBQ9-34" value="Go to Next Word" style="edgeLabel;html=1;align=center;verticalAlign=middle;resizable=0;points=[];" vertex="1" connectable="0" parent="OBE0YwQN6jxVk4rTIBQ9-33">
          <mxGeometry x="-0.2731" relative="1" as="geometry">
            <mxPoint as="offset" />
          </mxGeometry>
        </mxCell>
        <mxCell id="OBE0YwQN6jxVk4rTIBQ9-27" value="Add&amp;nbsp; Word to Encryption Array as is" style="rounded=1;whiteSpace=wrap;html=1;" vertex="1" parent="1">
          <mxGeometry x="640" y="760" width="120" height="60" as="geometry" />
        </mxCell>
        <mxCell id="OBE0YwQN6jxVk4rTIBQ9-41" style="edgeStyle=orthogonalEdgeStyle;rounded=0;orthogonalLoop=1;jettySize=auto;html=1;entryX=0;entryY=0.5;entryDx=0;entryDy=0;" edge="1" parent="1" source="OBE0YwQN6jxVk4rTIBQ9-38" target="OBE0YwQN6jxVk4rTIBQ9-40">
          <mxGeometry relative="1" as="geometry">
            <Array as="points">
              <mxPoint x="680" y="590" />
            </Array>
          </mxGeometry>
        </mxCell>
        <mxCell id="OBE0YwQN6jxVk4rTIBQ9-44" value="False" style="edgeLabel;html=1;align=center;verticalAlign=middle;resizable=0;points=[];" vertex="1" connectable="0" parent="OBE0YwQN6jxVk4rTIBQ9-41">
          <mxGeometry x="0.5" y="-3" relative="1" as="geometry">
            <mxPoint as="offset" />
          </mxGeometry>
        </mxCell>
        <mxCell id="OBE0YwQN6jxVk4rTIBQ9-42" style="edgeStyle=orthogonalEdgeStyle;rounded=0;orthogonalLoop=1;jettySize=auto;html=1;entryX=0;entryY=0.5;entryDx=0;entryDy=0;" edge="1" parent="1" source="OBE0YwQN6jxVk4rTIBQ9-38" target="OBE0YwQN6jxVk4rTIBQ9-39">
          <mxGeometry relative="1" as="geometry">
            <Array as="points">
              <mxPoint x="680" y="390" />
            </Array>
          </mxGeometry>
        </mxCell>
        <mxCell id="OBE0YwQN6jxVk4rTIBQ9-43" value="True" style="edgeLabel;html=1;align=center;verticalAlign=middle;resizable=0;points=[];" vertex="1" connectable="0" parent="OBE0YwQN6jxVk4rTIBQ9-42">
          <mxGeometry x="0.1571" relative="1" as="geometry">
            <mxPoint as="offset" />
          </mxGeometry>
        </mxCell>
        <mxCell id="OBE0YwQN6jxVk4rTIBQ9-38" value="If Even num Chars" style="rhombus;whiteSpace=wrap;html=1;fontSize=10;" vertex="1" parent="1">
          <mxGeometry x="640" y="450" width="80" height="80" as="geometry" />
        </mxCell>
        <mxCell id="OBE0YwQN6jxVk4rTIBQ9-48" style="edgeStyle=orthogonalEdgeStyle;rounded=0;orthogonalLoop=1;jettySize=auto;html=1;entryX=0;entryY=0.5;entryDx=0;entryDy=0;" edge="1" parent="1" source="OBE0YwQN6jxVk4rTIBQ9-39" target="OBE0YwQN6jxVk4rTIBQ9-45">
          <mxGeometry relative="1" as="geometry" />
        </mxCell>
        <mxCell id="OBE0YwQN6jxVk4rTIBQ9-39" value="Split Index = (numChars / 2)" style="rounded=1;whiteSpace=wrap;html=1;" vertex="1" parent="1">
          <mxGeometry x="760" y="360" width="120" height="60" as="geometry" />
        </mxCell>
        <mxCell id="OBE0YwQN6jxVk4rTIBQ9-46" style="edgeStyle=orthogonalEdgeStyle;rounded=0;orthogonalLoop=1;jettySize=auto;html=1;entryX=0;entryY=0.5;entryDx=0;entryDy=0;" edge="1" parent="1" source="OBE0YwQN6jxVk4rTIBQ9-40" target="OBE0YwQN6jxVk4rTIBQ9-45">
          <mxGeometry relative="1" as="geometry" />
        </mxCell>
        <mxCell id="OBE0YwQN6jxVk4rTIBQ9-40" value="Split Index = (numChars + 1) / 2" style="rounded=1;whiteSpace=wrap;html=1;" vertex="1" parent="1">
          <mxGeometry x="760" y="560" width="120" height="60" as="geometry" />
        </mxCell>
        <mxCell id="OBE0YwQN6jxVk4rTIBQ9-50" style="edgeStyle=orthogonalEdgeStyle;rounded=0;orthogonalLoop=1;jettySize=auto;html=1;entryX=0;entryY=0.5;entryDx=0;entryDy=0;" edge="1" parent="1" source="OBE0YwQN6jxVk4rTIBQ9-45" target="OBE0YwQN6jxVk4rTIBQ9-49">
          <mxGeometry relative="1" as="geometry" />
        </mxCell>
        <mxCell id="OBE0YwQN6jxVk4rTIBQ9-45" value="&quot;Copy&quot; First Half of Word to firstHalf String" style="rounded=1;whiteSpace=wrap;html=1;" vertex="1" parent="1">
          <mxGeometry x="920" y="460" width="120" height="60" as="geometry" />
        </mxCell>
        <mxCell id="OBE0YwQN6jxVk4rTIBQ9-52" style="edgeStyle=orthogonalEdgeStyle;rounded=0;orthogonalLoop=1;jettySize=auto;html=1;entryX=0;entryY=0.5;entryDx=0;entryDy=0;" edge="1" parent="1" source="OBE0YwQN6jxVk4rTIBQ9-49" target="OBE0YwQN6jxVk4rTIBQ9-51">
          <mxGeometry relative="1" as="geometry" />
        </mxCell>
        <mxCell id="OBE0YwQN6jxVk4rTIBQ9-49" value="&quot;Copy&quot; Last Half of Word to lastHalf String" style="rounded=1;whiteSpace=wrap;html=1;" vertex="1" parent="1">
          <mxGeometry x="1080" y="460" width="120" height="60" as="geometry" />
        </mxCell>
        <mxCell id="OBE0YwQN6jxVk4rTIBQ9-53" style="edgeStyle=orthogonalEdgeStyle;rounded=0;orthogonalLoop=1;jettySize=auto;html=1;" edge="1" parent="1" source="OBE0YwQN6jxVk4rTIBQ9-51" target="OBE0YwQN6jxVk4rTIBQ9-54">
          <mxGeometry relative="1" as="geometry">
            <mxPoint x="1400" y="490" as="targetPoint" />
          </mxGeometry>
        </mxCell>
        <mxCell id="OBE0YwQN6jxVk4rTIBQ9-51" value="Combine Both Halves in Reverse into Single String" style="rounded=1;whiteSpace=wrap;html=1;" vertex="1" parent="1">
          <mxGeometry x="1240" y="460" width="120" height="60" as="geometry" />
        </mxCell>
        <mxCell id="OBE0YwQN6jxVk4rTIBQ9-54" value="Output Result to output.out File" style="rounded=1;whiteSpace=wrap;html=1;" vertex="1" parent="1">
          <mxGeometry x="1400" y="460" width="120" height="60" as="geometry" />
        </mxCell>
        <mxCell id="OBE0YwQN6jxVk4rTIBQ9-57" value="End Program" style="rounded=1;whiteSpace=wrap;html=1;" vertex="1" parent="1">
          <mxGeometry x="160" y="760" width="120" height="60" as="geometry" />
        </mxCell>
      </root>
    </mxGraphModel>
  </diagram>
</mxfile>
